<?xml version="1.0" encoding="utf-8"?>
<svg version="1.2" xmlns:xlink="http://www.w3.org/1999/xlink" width="100%" viewBox="0 0 2000 1500" baseProfile="tiny-ps" xmlns="http://www.w3.org/2000/svg">
  <title>AS205794 Labs</title>
<path fill="#FFFFFF" stroke="none" d=" M1236.000000,1501.000000   C824.000122,1501.000000 412.500244,1501.000000 1.000184,1501.000000   C1.000000,1433.666870 1.000000,1366.333618 1.000000,1299.000488   C1.000000,866.333923 1.000000,433.667358 1.000000,1.000612   C667.666199,1.000408 1334.332397,1.000408 2000.998901,1.000204   C2000.999268,500.999390 2000.999268,1000.998779 2000.999634,1500.999023   C1746.166626,1501.000000 1491.333374,1501.000000 1236.000000,1501.000000  M337.943726,1279.058838   C337.943726,1279.058838 338.083069,1279.057495 338.261292,1279.618530   C338.827515,1279.746704 339.393768,1279.874756 340.193695,1280.573486   C340.779510,1280.721191 341.365326,1280.869019 342.233246,1281.665894   C344.727844,1283.153564 347.164398,1284.750732 349.726685,1286.110962   C363.188629,1293.257202 377.047577,1299.430664 392.192078,1303.590820   C392.787781,1303.645874 393.383514,1303.700928 394.456421,1303.934204   C394.623749,1303.963135 394.791046,1303.991943 395.330933,1304.720215   C396.578461,1304.990845 397.815918,1305.326294 399.075104,1305.521851   C411.012512,1307.376343 422.953644,1309.207031 435.373657,1311.780029   C446.922150,1311.839355 458.470612,1311.914429 470.019104,1311.918701   C470.709320,1311.918945 471.399689,1311.352905 472.986359,1311.002075   C479.498413,1310.314941 486.096466,1310.071411 492.500977,1308.829834   C500.747925,1307.231079 508.839722,1304.832397 517.763489,1302.916138   C537.218445,1296.819946 555.784790,1288.770508 573.516174,1277.887939   C573.682434,1277.606445 573.848694,1277.324951 574.024536,1277.022095   C574.024536,1277.022095 574.045166,1277.010864 574.693054,1276.755127   C583.310059,1270.462891 591.952576,1264.204956 600.536499,1257.867920   C608.067566,1252.308105 615.532959,1246.659302 623.741943,1240.970215   C627.623840,1238.359253 631.447388,1235.656006 635.398865,1233.154907   C646.578979,1226.077759 657.811462,1219.083252 669.750671,1211.965332   C676.722351,1208.197510 683.669067,1204.382568 690.672668,1200.675049   C698.096436,1196.744995 705.574158,1192.916992 713.769958,1188.959961   C728.518250,1182.567017 743.266541,1176.174072 758.611694,1169.923340   C759.073608,1169.627930 759.535522,1169.332642 760.020691,1169.026367   C760.020691,1169.026367 760.035767,1169.005737 760.797424,1168.954468   C763.492981,1167.947754 766.170227,1166.888550 768.887207,1165.943359   C781.263977,1161.637817 793.651978,1157.364502 806.848450,1153.001221   C811.975098,1151.654175 817.107117,1150.327271 822.227112,1148.955322   C829.817810,1146.921265 837.399902,1144.855103 845.801208,1142.949463   C848.473145,1142.313965 851.121399,1141.545166 853.820984,1141.064697   C869.199402,1138.326538 884.589111,1135.651611 899.977173,1132.967773   C905.685791,1131.972046 911.400330,1131.010254 918.005859,1130.002197   C935.342346,1128.610474 952.678894,1127.218750 970.939819,1125.978516   C988.617859,1125.927734 1006.295837,1125.877075 1024.851074,1125.965332   C1035.154785,1126.641602 1045.472900,1127.153442 1055.757690,1128.047852   C1063.511475,1128.722412 1071.222656,1129.886475 1079.824707,1130.985840   C1092.693237,1132.980469 1105.594238,1134.787964 1118.424072,1137.006836   C1149.614868,1142.401489 1180.091064,1150.603516 1210.804565,1160.981934   C1211.578857,1161.185547 1212.372192,1161.335327 1213.124512,1161.600952   C1222.072754,1164.760986 1231.014771,1167.938354 1240.286865,1171.765259   C1254.963867,1178.190430 1269.674194,1184.540649 1284.302124,1191.075806   C1290.609863,1193.893677 1296.746826,1197.093384 1303.272949,1200.760620   C1316.474976,1208.187744 1329.677124,1215.614868 1343.053467,1223.550903   C1343.361694,1223.647095 1343.669922,1223.743286 1344.461670,1223.997559   C1344.626831,1224.036377 1344.791870,1224.075073 1345.230347,1224.755249   C1363.138916,1237.208252 1381.047485,1249.661255 1399.244141,1262.739746   C1401.845459,1264.672729 1404.467407,1266.578613 1407.044678,1268.543213   C1419.723022,1278.208008 1431.917969,1288.596069 1445.157349,1297.417480   C1473.690918,1316.429932 1505.802979,1324.678467 1539.774048,1325.859131   C1548.083740,1326.147827 1556.453857,1324.660156 1564.797607,1324.007812   C1581.750610,1322.682007 1597.843506,1317.992798 1613.321899,1311.196777   C1640.008423,1299.479858 1662.678833,1282.564697 1681.012573,1259.665894   C1696.044556,1240.890991 1707.426880,1220.259766 1715.655884,1197.770264   C1721.560425,1181.633545 1726.596558,1165.332275 1724.987793,1147.798096   C1724.749268,1145.199463 1724.205933,1142.625977 1724.022217,1140.025513   C1722.979126,1125.259155 1722.177856,1110.473389 1720.950439,1095.723022   C1719.865967,1082.689697 1718.841187,1069.616333 1716.875244,1056.699829   C1714.021484,1037.949219 1711.045288,1019.164978 1706.856201,1000.681885   C1700.475830,972.530396 1693.473511,944.498840 1685.888672,916.646973   C1677.058594,884.222351 1665.299072,852.769409 1652.003662,821.197632   C1651.277710,819.827087 1650.551758,818.456543 1649.968994,816.430603   C1649.639282,815.947388 1649.309448,815.464233 1648.980347,815.015808   C1648.980347,815.015808 1649.012817,815.028992 1648.989136,814.259521   C1642.458130,799.448914 1636.515137,784.343323 1629.266113,769.892883   C1616.581787,744.607300 1603.421753,719.545288 1589.829346,694.735657   C1580.892944,678.424744 1571.211304,662.489258 1561.202148,646.807617   C1550.034668,629.311157 1538.416260,612.082642 1526.447388,595.123230   C1513.718018,577.085999 1500.806885,559.138794 1487.140625,541.810364   C1470.232788,520.371399 1452.769653,499.349030 1434.972412,478.639954   C1421.225586,462.643890 1406.920776,447.092926 1392.274536,431.912842   C1373.883789,412.851715 1354.930176,394.332153 1336.135132,375.663757   C1330.379883,369.947296 1324.465820,364.377319 1318.417725,358.971680   C1304.202515,346.266602 1289.921265,333.633759 1275.543823,321.112885   C1269.878052,316.178833 1263.885010,311.620605 1257.769043,306.271149   C1253.861450,303.150116 1249.953979,300.029114 1245.776001,296.281433   C1238.869385,290.822723 1231.962891,285.364044 1224.751709,279.288391   C1223.691406,278.555115 1222.609253,277.851196 1221.574097,277.083954   C1212.080444,270.047333 1202.595215,262.999664 1192.816040,255.318069   C1181.898926,247.522247 1170.981812,239.726410 1159.742432,231.306854   C1150.492676,225.593521 1141.243042,219.880188 1131.338623,213.863022   C1129.693481,212.882370 1128.131226,211.711670 1126.389526,210.952469   C1116.320923,206.563522 1106.209961,202.271667 1095.764648,197.283539   C1091.543457,195.838654 1087.322388,194.393784 1082.722046,192.258377   C1080.412231,191.626236 1078.123047,190.902161 1075.788818,190.378708   C1067.864868,188.601746 1059.924805,186.895691 1051.263794,184.799667   C1042.213379,183.513901 1033.162964,182.228134 1023.655396,180.189285   C1011.432617,179.844849 999.209778,179.500412 986.163208,179.325592   C984.435791,179.548965 982.712097,179.808701 980.980164,179.988434   C976.984619,180.403030 972.985046,180.778824 968.099060,181.028900   C960.684509,182.020721 953.137634,182.442429 945.883728,184.126343   C931.970398,187.356232 918.105164,190.916504 904.450806,195.093979   C896.037109,197.668137 887.745789,201.051895 879.939453,205.110550   C866.402893,212.148438 852.941284,219.455231 840.109192,227.680527   C831.111206,233.448196 823.265991,240.998825 814.808289,247.628647   C803.068542,256.831177 791.013367,265.644897 779.499451,275.118683   C763.598022,288.202484 747.868225,301.512665 732.450928,315.161896   C718.389526,327.610687 704.539062,340.331726 691.145142,353.492096   C674.088196,370.251709 657.560669,387.551270 640.858093,404.669922   C636.710876,408.920380 632.662354,413.277832 628.752319,417.746948   C617.760498,430.310272 606.798950,442.901489 595.957153,455.594116   C590.144775,462.398773 584.558899,469.399139 578.950012,476.374817   C570.791138,486.521790 562.551025,496.609131 554.632446,506.941772   C547.854187,515.786560 541.479126,524.940430 534.989746,533.984192   C534.989746,533.984192 534.975830,533.916321 534.457581,534.054382   C534.278015,534.349304 534.098389,534.644165 533.297546,535.244080   C532.327026,536.549927 531.296753,537.815796 530.394836,539.167480   C513.156555,565.002136 495.206177,590.397827 478.897522,616.807129   C459.952423,647.485779 441.944275,678.775879 424.503754,710.338928   C413.414703,730.407288 403.797974,751.314697 394.071930,772.103577   C384.450043,792.669922 374.820435,813.282410 366.449951,834.372986   C353.741089,866.394836 342.025909,898.813721 330.106110,931.144104   C327.600128,937.941223 326.035553,945.085449 324.045746,952.039490   C324.045746,952.039490 324.050262,952.007324 323.403656,952.167419   C323.333557,952.798340 323.263428,953.429199 322.859070,954.741638   C315.212097,981.935974 307.445496,1009.097473 299.976868,1036.340698   C296.983002,1047.261353 294.424530,1058.314941 292.063049,1069.392090   C289.056946,1083.493164 286.134033,1097.626831 283.764069,1111.844482   C281.437225,1125.803589 279.847931,1139.885742 277.207336,1154.394775   C277.142792,1160.469727 276.962524,1166.546631 277.058258,1172.619019   C277.113159,1176.102173 277.616119,1179.578247 278.003876,1183.945435   C278.335022,1186.858765 278.640289,1189.775269 279.001495,1192.684937   C281.096191,1209.558472 287.571594,1224.752197 296.576599,1239.026733   C303.906982,1250.646851 313.164978,1260.513428 323.762115,1269.115967   C327.873047,1272.453003 332.561859,1275.078491 337.114441,1278.496582   C337.292725,1278.818726 337.564911,1278.959961 337.943726,1279.058838  z" />
<path fill="#68FBFF" stroke="none" d=" M1652.044312,821.886719   C1665.299072,852.769409 1677.058594,884.222351 1685.888672,916.646973   C1693.473511,944.498840 1700.475830,972.530396 1706.856201,1000.681885   C1711.045288,1019.164978 1714.021484,1037.949219 1716.875244,1056.699829   C1718.841187,1069.616333 1719.865967,1082.689697 1720.950439,1095.723022   C1722.177856,1110.473389 1722.979126,1125.259155 1724.022217,1140.025513   C1724.205933,1142.625977 1724.749268,1145.199463 1724.987793,1147.798096   C1726.596558,1165.332275 1721.560425,1181.633545 1715.655884,1197.770264   C1707.426880,1220.259766 1696.044556,1240.890991 1681.012573,1259.665894   C1662.678833,1282.564697 1640.008423,1299.479858 1613.321899,1311.196777   C1597.843506,1317.992798 1581.750610,1322.682007 1564.797607,1324.007812   C1556.453857,1324.660156 1548.083740,1326.147827 1539.774048,1325.859131   C1505.802979,1324.678467 1473.690918,1316.429932 1445.157349,1297.417480   C1431.917969,1288.596069 1419.723022,1278.208008 1407.044678,1268.543213   C1404.467407,1266.578613 1401.845459,1264.672729 1399.110840,1262.018799   C1399.507812,1259.431274 1399.702515,1257.377319 1400.623657,1255.729370   C1405.811401,1246.447144 1411.140747,1237.243286 1416.483032,1228.048218   C1430.588379,1203.770020 1444.724365,1179.509766 1458.849487,1155.243408   C1470.718384,1134.853149 1482.607910,1114.474731 1494.454346,1094.071411   C1508.802856,1069.358521 1523.103882,1044.617920 1537.447388,1019.901978   C1550.790894,996.909302 1564.167358,973.935669 1577.522217,950.949463   C1591.377441,927.102295 1605.265259,903.273865 1619.061523,879.392700   C1630.115601,860.258606 1641.054321,841.057861 1652.044312,821.886719  z" />
<path fill="#1099F6" stroke="none" d=" M324.037201,952.069702   C326.035553,945.085449 327.600128,937.941223 330.106110,931.144104   C342.025909,898.813721 353.741089,866.394836 366.449951,834.372986   C374.820435,813.282410 384.450043,792.669922 394.071930,772.103577   C403.797974,751.314697 413.414703,730.407288 424.503754,710.338928   C441.944275,678.775879 459.952423,647.485779 478.897522,616.807129   C495.206177,590.397827 513.156555,565.002136 530.394836,539.167480   C531.296753,537.815796 532.327026,536.549927 533.931274,535.102783   C534.701965,534.613159 534.838928,534.264709 534.975830,533.916321   C534.975830,533.916321 534.989746,533.984192 535.304443,534.121094   C536.504700,533.805603 537.451477,533.443176 538.266724,532.887634   C566.633362,513.557861 596.450867,496.720947 627.205811,481.553070   C663.094238,463.853394 699.783691,448.045563 737.992920,436.357605   C737.462585,438.626099 737.283447,440.693298 736.345337,442.323792   C720.264099,470.274719 704.118713,498.188934 687.926758,526.076050   C669.065063,558.561401 650.132446,591.005554 631.253540,623.480835   C617.553528,647.047485 603.912781,670.648560 590.205627,694.210999   C576.666016,717.485352 563.054199,740.717651 549.514221,763.991699   C534.218933,790.282898 518.921265,816.572876 503.731445,842.924866   C499.943573,849.496216 496.566132,856.304077 492.626404,863.168579   C485.207306,864.290283 478.115692,864.990173 471.124451,866.247803   C442.505157,871.395691 414.943085,879.803162 389.349060,893.879761   C368.667236,905.254761 350.118866,919.393982 335.029266,937.687622   C331.612183,941.830139 329.102386,946.721069 326.110535,951.226807   C326.046143,951.186035 326.079895,951.037415 325.825256,951.185059   C325.339905,951.650635 325.109131,951.968445 324.628418,952.386108   C324.264709,952.347229 324.150940,952.208435 324.037201,952.069702  z" />
<path fill="#5AEBFD" stroke="none" d=" M1302.961426,1200.119629   C1296.746826,1197.093384 1290.609863,1193.893677 1284.302124,1191.075806   C1269.674194,1184.540649 1254.963867,1178.190430 1240.134399,1171.044922   C1240.505615,1168.791260 1240.800293,1167.127319 1241.589111,1165.745483   C1247.848145,1154.783081 1254.201050,1143.874268 1260.525146,1132.948975   C1275.586060,1106.931030 1290.614014,1080.893799 1305.717896,1054.900757   C1319.235596,1031.637573 1332.860229,1008.436646 1346.395142,985.183594   C1361.768433,958.772522 1377.162476,932.373169 1392.381226,905.873291   C1395.304321,900.783264 1397.458496,895.251526 1400.045166,889.588623   C1403.036255,884.150574 1405.949707,879.047424 1409.223022,873.914368   C1410.926025,872.515808 1412.622803,871.353149 1413.557495,869.746887   C1423.000122,853.521545 1432.257812,837.188660 1441.684937,820.954163   C1455.198730,797.682007 1468.844116,774.486267 1482.371704,751.222168   C1498.238281,723.935669 1513.999756,696.587830 1529.969116,669.361877   C1530.880249,667.808411 1533.255859,667.114075 1535.217285,666.216614   C1546.843384,679.925903 1558.298706,693.359192 1569.513794,706.990051   C1573.984619,712.423828 1577.924194,718.294495 1581.729004,723.985840   C1579.533813,725.751160 1577.243164,727.210938 1575.981445,729.294006   C1571.420166,736.824524 1567.280762,744.608826 1562.846191,752.218079   C1540.927734,789.828979 1518.907104,827.380493 1497.034790,865.018188   C1473.575195,905.387451 1450.281006,945.852661 1426.839844,986.232666   C1405.818726,1022.443787 1384.689819,1058.592529 1363.620483,1094.775635   C1349.406860,1119.184937 1335.168579,1143.580200 1321.033081,1168.034668   C1314.890503,1178.661133 1308.978271,1189.420654 1302.961426,1200.119629  z" />
<path fill="#A6F6FB" stroke="none" d=" M737.990845,435.953125   C699.783691,448.045563 663.094238,463.853394 627.205811,481.553070   C596.450867,496.720947 566.633362,513.557861 538.266724,532.887634   C537.451477,533.443176 536.504700,533.805603 535.272461,534.107788   C541.479126,524.940430 547.854187,515.786560 554.632446,506.941772   C562.551025,496.609131 570.791138,486.521790 578.950012,476.374817   C584.558899,469.399139 590.144775,462.398773 595.957153,455.594116   C606.798950,442.901489 617.760498,430.310272 628.752319,417.746948   C632.662354,413.277832 636.710876,408.920380 640.858093,404.669922   C657.560669,387.551270 674.088196,370.251709 691.145142,353.492096   C704.539062,340.331726 718.389526,327.610687 732.450928,315.161896   C747.868225,301.512665 763.598022,288.202484 779.499451,275.118683   C791.013367,265.644897 803.068542,256.831177 814.808289,247.628647   C823.265991,240.998825 831.111206,233.448196 840.109192,227.680527   C852.941284,219.455231 866.402893,212.148438 879.939453,205.110550   C887.745789,201.051895 896.037109,197.668137 904.450806,195.093979   C918.105164,190.916504 931.970398,187.356232 945.883728,184.126343   C953.137634,182.442429 960.684509,182.020721 968.487183,181.441208   C967.345093,184.605331 965.957825,187.448593 964.263184,190.095047   C941.598206,225.490143 918.895752,260.861206 896.191528,296.231171   C872.858643,332.580444 849.489990,368.906860 826.244324,405.311798   C825.091980,407.116455 824.964355,409.575378 823.983398,411.803528   C810.803345,414.967865 797.884094,417.652527 785.224792,421.251678   C769.368591,425.759644 753.725769,431.018402 737.990845,435.953125  z" />
<path fill="#1494F6" stroke="none" d=" M1582.105591,723.966309   C1577.924194,718.294495 1573.984619,712.423828 1569.513794,706.990051   C1558.298706,693.359192 1546.843384,679.925903 1535.084351,665.912231   C1521.516357,651.556458 1508.348511,637.701782 1494.999878,623.569092   C1478.692017,607.883545 1462.712646,592.316833 1446.368652,577.142944   C1439.334229,570.612122 1431.543945,564.895508 1423.917725,558.531494   C1422.409424,557.005371 1421.183350,555.620544 1419.735840,554.529236   C1403.863770,542.563416 1388.283203,530.173462 1371.964722,518.847900   C1356.735229,508.278290 1340.711670,498.852783 1324.823364,488.665222   C1314.191650,482.507843 1304.100952,475.911102 1293.291626,470.848969   C1267.245117,458.651001 1240.971558,446.916962 1214.553345,435.544617   C1205.765991,431.761871 1196.259399,429.649841 1186.900635,426.521301   C1185.819702,425.818237 1184.919922,425.367828 1184.027344,424.547943   C1184.844604,422.199188 1185.371704,420.038513 1186.506592,418.267303   C1210.310059,381.115509 1234.182373,344.007721 1258.041016,306.891266   C1263.885010,311.620605 1269.878052,316.178833 1275.543823,321.112885   C1289.921265,333.633759 1304.202515,346.266602 1318.417725,358.971680   C1324.465820,364.377319 1330.379883,369.947296 1336.135132,375.663757   C1354.930176,394.332153 1373.883789,412.851715 1392.274536,431.912842   C1406.920776,447.092926 1421.225586,462.643890 1434.972412,478.639954   C1452.769653,499.349030 1470.232788,520.371399 1487.140625,541.810364   C1500.806885,559.138794 1513.718018,577.085999 1526.447388,595.123230   C1538.416260,612.082642 1550.034668,629.311157 1561.202148,646.807617   C1571.211304,662.489258 1580.892944,678.424744 1589.829346,694.735657   C1603.421753,719.545288 1616.581787,744.607300 1629.266113,769.892883   C1636.515137,784.343323 1642.458130,799.448914 1648.670654,814.550659   C1644.543945,809.479736 1640.744629,804.111328 1636.926025,798.756653   C1628.638306,787.135742 1620.340698,775.521790 1612.002441,763.558289   C1607.819458,757.272522 1603.888306,751.174805 1599.490967,745.434265   C1593.893188,738.127014 1587.917969,731.109009 1582.105591,723.966309  z" />
<path fill="#337AE6" stroke="none" d=" M326.174957,951.267517   C329.102386,946.721069 331.612183,941.830139 335.029266,937.687622   C350.118866,919.393982 368.667236,905.254761 389.349060,893.879761   C414.943085,879.803162 442.505157,871.395691 471.124451,866.247803   C478.115692,864.990173 485.207306,864.290283 493.083496,863.170837   C496.738953,862.906555 499.564789,862.830505 502.388092,862.699707   C513.824646,862.169800 525.263245,861.144043 536.695679,861.211792   C549.133118,861.285461 561.564575,862.368896 574.375610,863.175171   C578.839294,863.868347 582.947327,864.270691 587.009094,864.949890   C608.681213,868.573608 630.341858,872.266602 652.403625,875.968933   C663.554932,878.717957 674.405457,881.104675 685.042175,884.220886   C704.432129,889.901184 723.695435,896.014099 743.339539,902.108398   C775.787842,915.130737 807.908142,927.991272 840.340576,941.035522   C841.880249,941.719604 843.141174,942.151428 844.330444,942.730347   C870.343567,955.392883 896.346313,968.076782 922.358521,980.741211   C925.472595,982.257385 928.629578,983.685303 931.990112,985.418213   C939.622070,989.770935 947.056213,993.814026 954.434204,997.957092   C973.972473,1008.928467 993.486450,1019.943237 1013.296753,1031.128906   C1027.345581,1039.688232 1041.098022,1048.075317 1054.873657,1056.424316   C1062.526733,1061.062744 1070.218506,1065.637939 1078.099609,1070.500732   C1097.872925,1083.484497 1117.439453,1096.208984 1137.285156,1109.128296   C1142.081421,1112.413696 1146.592041,1115.514160 1151.117188,1118.593262   C1166.062012,1128.762451 1181.011841,1138.923950 1196.140991,1149.368164   C1197.914795,1150.776855 1199.588867,1151.807983 1201.082886,1153.055054   C1204.117065,1155.587769 1207.053833,1158.237061 1210.030762,1160.838379   C1180.091064,1150.603516 1149.614868,1142.401489 1118.424072,1137.006836   C1105.594238,1134.787964 1092.693237,1132.980469 1079.311646,1130.590820   C1077.687256,1129.226685 1076.671875,1128.111206 1075.450317,1127.309937   C1047.647095,1109.072998 1020.094849,1090.433228 991.913025,1072.800171   C969.680481,1058.889526 946.667786,1046.225830 923.770996,1032.751587   C911.153870,1025.751587 898.840576,1018.868835 886.353882,1012.316650   C878.702820,1008.301819 870.785950,1004.793518 862.675781,1000.901001   C850.583069,995.140869 838.803101,989.537476 826.806213,983.669739   C813.051453,977.329529 799.513611,971.253662 785.600159,965.110657   C784.126648,964.686401 783.007080,964.384521 781.934021,963.963806   C769.286377,959.004272 756.645630,954.027039 743.634766,948.981995   C738.803040,947.236328 734.385315,945.425415 729.865967,943.919739   C721.612000,941.169800 713.297791,938.600464 704.678345,935.792847   C697.774902,933.458801 691.258972,931.089661 684.612915,929.171448   C677.809387,927.207703 670.878357,925.685913 663.624390,923.919434   C649.165100,920.569092 635.084534,917.269958 620.608765,913.916992   C602.798584,910.998230 585.383484,908.133362 567.515564,905.191650   C560.283325,904.723999 553.504578,904.321045 546.724365,903.945129   C535.147156,903.303284 523.569031,902.678467 511.524902,902.003906   C498.036499,902.349976 485.002045,902.510925 471.997681,903.221375   C465.288177,903.587891 458.632050,904.931091 451.524933,905.838318   C444.606079,906.873047 438.008057,907.468079 431.643829,909.021057   C417.699829,912.423584 403.874359,916.311829 389.619202,920.025696   C377.584320,924.797607 365.639923,928.951782 354.365112,934.473267   C344.574860,939.267700 335.542358,945.609558 326.174957,951.267517  z" />
<path fill="#62F4FE" stroke="none" d=" M1612.047119,763.904968   C1620.340698,775.521790 1628.638306,787.135742 1636.926025,798.756653   C1640.744629,804.111328 1644.543945,809.479736 1648.682373,814.935425   C1649.012817,815.028992 1648.980347,815.015808 1648.933594,815.300842   C1649.199707,816.085938 1649.512817,816.585938 1649.825806,817.085999   C1650.551758,818.456543 1651.277710,819.827087 1652.023926,821.542175   C1641.054321,841.057861 1630.115601,860.258606 1619.061523,879.392700   C1605.265259,903.273865 1591.377441,927.102295 1577.522217,950.949463   C1564.167358,973.935669 1550.790894,996.909302 1537.447388,1019.901978   C1523.103882,1044.617920 1508.802856,1069.358521 1494.454346,1094.071411   C1482.607910,1114.474731 1470.718384,1134.853149 1458.849487,1155.243408   C1444.724365,1179.509766 1430.588379,1203.770020 1416.483032,1228.048218   C1411.140747,1237.243286 1405.811401,1246.447144 1400.623657,1255.729370   C1399.702515,1257.377319 1399.507812,1259.431274 1398.966797,1261.706055   C1381.047485,1249.661255 1363.138916,1237.208252 1345.150635,1224.070557   C1346.046509,1221.274048 1346.861084,1219.068726 1348.022095,1217.063965   C1366.010986,1185.998535 1384.039307,1154.955933 1402.069702,1123.914551   C1422.353760,1088.993042 1442.649658,1054.078369 1462.939697,1019.160400   C1485.651245,980.075378 1508.353271,940.984680 1531.075806,901.905945   C1549.955322,869.436523 1568.811646,836.953369 1587.774048,804.532227   C1595.738159,790.915527 1603.948608,777.443054 1612.047119,763.904968  z" />
<path fill="#5EEFFE" stroke="none" d=" M1612.002441,763.558289   C1603.948608,777.443054 1595.738159,790.915527 1587.774048,804.532227   C1568.811646,836.953369 1549.955322,869.436523 1531.075806,901.905945   C1508.353271,940.984680 1485.651245,980.075378 1462.939697,1019.160400   C1442.649658,1054.078369 1422.353760,1088.993042 1402.069702,1123.914551   C1384.039307,1154.955933 1366.010986,1185.998535 1348.022095,1217.063965   C1346.861084,1219.068726 1346.046509,1221.274048 1345.013916,1223.749756   C1344.791870,1224.075073 1344.626831,1224.036377 1344.071533,1223.741943   C1343.446899,1223.278687 1343.179443,1223.130615 1342.879150,1223.041992   C1329.677124,1215.614868 1316.474976,1208.187744 1303.117188,1200.440186   C1308.978271,1189.420654 1314.890503,1178.661133 1321.033081,1168.034668   C1335.168579,1143.580200 1349.406860,1119.184937 1363.620483,1094.775635   C1384.689819,1058.592529 1405.818726,1022.443787 1426.839844,986.232666   C1450.281006,945.852661 1473.575195,905.387451 1497.034790,865.018188   C1518.907104,827.380493 1540.927734,789.828979 1562.846191,752.218079   C1567.280762,744.608826 1571.420166,736.824524 1575.981445,729.294006   C1577.243164,727.210938 1579.533813,725.751160 1581.729004,723.985840   C1587.917969,731.109009 1593.893188,738.127014 1599.490967,745.434265   C1603.888306,751.174805 1607.819458,757.272522 1612.002441,763.558289  z" />
<path fill="#7FE2F1" stroke="none" d=" M451.951813,905.833069   C458.632050,904.931091 465.288177,903.587891 471.997681,903.221375   C485.002045,902.510925 498.036499,902.349976 511.459473,902.403931   C510.240906,914.827637 508.582458,926.803650 507.011780,938.791138   C505.117676,953.247437 503.299438,967.713623 501.445892,982.175171   C499.297241,998.938965 497.158722,1015.704041 494.991821,1032.465454   C493.143768,1046.760498 491.251801,1061.049927 489.397522,1075.344238   C487.585602,1089.312012 485.799072,1103.283203 483.997162,1117.252319   C482.153107,1131.548340 480.314514,1145.845215 478.454346,1160.139160   C476.316040,1176.570557 474.117737,1192.994019 472.018127,1209.430298   C470.191376,1223.730591 468.520081,1238.050659 466.682373,1252.349487   C464.169312,1271.902710 461.563690,1291.443848 458.529358,1310.996338   C450.338531,1311.016479 442.616089,1311.030518 434.893677,1311.044678   C422.953644,1309.207031 411.012512,1307.376343 399.075104,1305.521851   C397.815918,1305.326294 396.578461,1304.990845 395.541931,1304.351685   C397.487793,1302.601074 400.402557,1301.466309 400.752777,1299.794067   C402.242920,1292.680054 403.060211,1285.417603 403.964081,1278.189453   C406.100555,1261.104492 408.052887,1243.995850 410.253571,1226.919312   C412.728821,1207.712036 415.474304,1188.539673 417.955780,1169.333130   C420.458893,1149.958862 422.700317,1130.550781 425.207977,1111.177124   C427.693939,1091.971069 430.465607,1072.801880 432.935547,1053.593872   C435.764801,1031.591431 438.306915,1009.552063 441.142700,987.550537   C444.655060,960.299683 448.340912,933.071228 451.951813,905.833069  z" />
<path fill="#99EDF0" stroke="none" d=" M326.110535,951.226807   C335.542358,945.609558 344.574860,939.267700 354.365112,934.473267   C365.639923,928.951782 377.584320,924.797607 389.618988,920.482422   C389.476349,926.687439 389.105164,932.478394 388.398682,938.228210   C386.681763,952.201660 384.801239,966.155029 383.001221,980.118347   C381.158997,994.409058 379.341553,1008.703003 377.499634,1022.993774   C375.340057,1039.748779 373.153931,1056.500366 371.001495,1073.256226   C369.186584,1087.384521 367.445770,1101.522339 365.594116,1115.645874   C363.785706,1129.439941 361.794159,1143.210083 360.036194,1157.010254   C357.880371,1173.934082 355.940948,1190.885498 353.803375,1207.811768   C351.251251,1228.020752 348.827637,1248.251831 345.778564,1268.387085   C345.142609,1272.587036 346.939240,1277.981079 341.951111,1281.016846   C341.365326,1280.869019 340.779510,1280.721191 339.915741,1280.061157   C339.119537,1279.385132 338.601288,1279.221313 338.083069,1279.057495   C338.083069,1279.057495 337.943726,1279.058838 337.833618,1278.791260   C337.530304,1278.281006 337.284943,1278.115845 336.987427,1278.028076   C332.561859,1275.078491 327.873047,1272.453003 323.762115,1269.115967   C313.164978,1260.513428 303.906982,1250.646851 296.576599,1239.026733   C287.571594,1224.752197 281.096191,1209.558472 279.001495,1192.684937   C278.640289,1189.775269 278.335022,1186.858765 277.986267,1183.031982   C277.957428,1172.716919 277.946167,1163.315308 277.934937,1153.913818   C279.847931,1139.885742 281.437225,1125.803589 283.764069,1111.844482   C286.134033,1097.626831 289.056946,1083.493164 292.063049,1069.392090   C294.424530,1058.314941 296.983002,1047.261353 299.976868,1036.340698   C307.445496,1009.097473 315.212097,981.935974 323.306580,954.231934   C323.852814,953.150574 323.951538,952.578979 324.050293,952.007324   C324.050262,952.007324 324.045746,952.039490 324.041473,952.054565   C324.150940,952.208435 324.264709,952.347229 324.937225,952.291748   C325.690613,951.744141 325.885254,951.390747 326.079895,951.037415   C326.079895,951.037415 326.046143,951.186035 326.110535,951.226807  z" />
<path fill="#72DDF2" stroke="none" d=" M458.997742,1310.990234   C461.563690,1291.443848 464.169312,1271.902710 466.682373,1252.349487   C468.520081,1238.050659 470.191376,1223.730591 472.018127,1209.430298   C474.117737,1192.994019 476.316040,1176.570557 478.454346,1160.139160   C480.314514,1145.845215 482.153107,1131.548340 483.997162,1117.252319   C485.799072,1103.283203 487.585602,1089.312012 489.397522,1075.344238   C491.251801,1061.049927 493.143768,1046.760498 494.991821,1032.465454   C497.158722,1015.704041 499.297241,998.938965 501.445892,982.175171   C503.299438,967.713623 505.117676,953.247437 507.011780,938.791138   C508.582458,926.803650 510.240906,914.827637 511.925903,902.446533   C523.569031,902.678467 535.147156,903.303284 546.724365,903.945129   C553.504578,904.321045 560.283325,904.723999 567.524353,905.627441   C567.657227,910.768250 567.519653,915.419495 566.964233,920.020325   C565.237305,934.325867 563.367798,948.614319 561.523560,962.905579   C559.700623,977.032471 557.834351,991.153809 555.999390,1005.279114   C554.143066,1019.568237 552.296509,1033.858643 550.455505,1048.149658   C548.296936,1064.905884 546.158691,1081.664673 543.993408,1098.420044   C542.146606,1112.710083 540.265076,1126.995605 538.415100,1141.285156   C536.267273,1157.876343 534.131836,1174.469116 532.001099,1191.062500   C530.165771,1205.354736 528.357666,1219.650757 526.513428,1233.941895   C524.690369,1248.068970 522.901367,1262.200806 520.973755,1276.313721   C519.766785,1285.151367 518.331299,1293.957764 516.998352,1302.778198   C508.839722,1304.832397 500.747925,1307.231079 492.500977,1308.829834   C486.096466,1310.071411 479.498413,1310.314941 472.070129,1311.007202   C467.101868,1311.005005 463.049805,1310.997681 458.997742,1310.990234  z" />
<path fill="#8DE8F0" stroke="none" d=" M342.092194,1281.341309   C346.939240,1277.981079 345.142609,1272.587036 345.778564,1268.387085   C348.827637,1248.251831 351.251251,1228.020752 353.803375,1207.811768   C355.940948,1190.885498 357.880371,1173.934082 360.036194,1157.010254   C361.794159,1143.210083 363.785706,1129.439941 365.594116,1115.645874   C367.445770,1101.522339 369.186584,1087.384521 371.001495,1073.256226   C373.153931,1056.500366 375.340057,1039.748779 377.499634,1022.993774   C379.341553,1008.703003 381.158997,994.409058 383.001221,980.118347   C384.801239,966.155029 386.681763,952.201660 388.398682,938.228210   C389.105164,932.478394 389.476349,926.687439 390.000244,920.458435   C403.874359,916.311829 417.699829,912.423584 431.643829,909.021057   C438.008057,907.468079 444.606079,906.873047 451.524933,905.838318   C448.340912,933.071228 444.655060,960.299683 441.142700,987.550537   C438.306915,1009.552063 435.764801,1031.591431 432.935547,1053.593872   C430.465607,1072.801880 427.693939,1091.971069 425.207977,1111.177124   C422.700317,1130.550781 420.458893,1149.958862 417.955780,1169.333130   C415.474304,1188.539673 412.728821,1207.712036 410.253571,1226.919312   C408.052887,1243.995850 406.100555,1261.104492 403.964081,1278.189453   C403.060211,1285.417603 402.242920,1292.680054 400.752777,1299.794067   C400.402557,1301.466309 397.487793,1302.601074 395.355652,1304.001953   C394.791046,1303.991943 394.623749,1303.963135 394.008850,1303.657227   C393.020447,1303.259155 392.479584,1303.137817 391.938721,1303.016602   C377.047577,1299.430664 363.188629,1293.257202 349.726685,1286.110962   C347.164398,1284.750732 344.727844,1283.153564 342.092194,1281.341309  z" />
<path fill="#65D8F3" stroke="none" d=" M517.380920,1302.847168   C518.331299,1293.957764 519.766785,1285.151367 520.973755,1276.313721   C522.901367,1262.200806 524.690369,1248.068970 526.513428,1233.941895   C528.357666,1219.650757 530.165771,1205.354736 532.001099,1191.062500   C534.131836,1174.469116 536.267273,1157.876343 538.415100,1141.285156   C540.265076,1126.995605 542.146606,1112.710083 543.993408,1098.420044   C546.158691,1081.664673 548.296936,1064.905884 550.455505,1048.149658   C552.296509,1033.858643 554.143066,1019.568237 555.999390,1005.279114   C557.834351,991.153809 559.700623,977.032471 561.523560,962.905579   C563.367798,948.614319 565.237305,934.325867 566.964233,920.020325   C567.519653,915.419495 567.657227,910.768250 567.977173,905.704285   C585.383484,908.133362 602.798584,910.998230 620.606995,914.350403   C618.593567,933.900940 616.193848,952.965149 613.777649,972.027161   C611.799072,987.636536 609.855347,1003.250671 607.797607,1018.849609   C605.263489,1038.060303 602.541931,1057.246582 600.058655,1076.463623   C597.553772,1095.848511 595.330200,1115.269775 592.821289,1134.654053   C589.993896,1156.498657 586.947449,1178.314819 584.066162,1200.152588   C580.686584,1225.766846 577.382141,1251.390991 574.045166,1277.010864   C574.045166,1277.010864 574.024536,1277.022095 573.821777,1277.108643   C573.366821,1277.338257 573.164978,1277.533447 573.013489,1277.780762   C555.784790,1288.770508 537.218445,1296.819946 517.380920,1302.847168  z" />
<path fill="#5BD3F3" stroke="none" d=" M574.369141,1276.883057   C577.382141,1251.390991 580.686584,1225.766846 584.066162,1200.152588   C586.947449,1178.314819 589.993896,1156.498657 592.821289,1134.654053   C595.330200,1115.269775 597.553772,1095.848511 600.058655,1076.463623   C602.541931,1057.246582 605.263489,1038.060303 607.797607,1018.849609   C609.855347,1003.250671 611.799072,987.636536 613.777649,972.027161   C616.193848,952.965149 618.593567,933.900940 621.002075,914.404297   C635.084534,917.269958 649.165100,920.569092 663.623413,924.370483   C663.000671,933.588562 662.063171,942.312256 660.985657,951.018555   C659.216431,965.313354 657.373718,979.599182 655.529602,993.884583   C653.706604,1008.005554 651.833923,1022.120178 650.000610,1036.239868   C648.146118,1050.523438 646.312134,1064.809692 644.470825,1079.094971   C642.311890,1095.844116 640.148865,1112.592773 637.998840,1129.343018   C636.186035,1143.466064 634.404602,1157.593384 632.581116,1171.715088   C630.736694,1185.999756 628.916809,1200.288086 626.972229,1214.559204   C625.767029,1223.404297 624.349548,1232.220703 623.027405,1241.049927   C615.532959,1246.659302 608.067566,1252.308105 600.536499,1257.867920   C591.952576,1264.204956 583.310059,1270.462891 574.369141,1276.883057  z" />
<path fill="#55E5FD" stroke="none" d=" M1210.417725,1160.910156   C1207.053833,1158.237061 1204.117065,1155.587769 1201.082886,1153.055054   C1199.588867,1151.807983 1197.914795,1150.776855 1196.162964,1148.985352   C1196.561646,1146.769653 1196.905151,1145.093994 1197.711914,1143.683472   C1203.159790,1134.158691 1208.703003,1124.688477 1214.220581,1115.203613   C1227.680786,1092.064331 1241.153442,1068.932373 1254.603027,1045.787109   C1268.386597,1022.066956 1282.108887,998.311035 1295.936768,974.616821   C1302.870972,962.734985 1309.980469,950.955444 1317.439331,939.088745   C1338.133301,936.821655 1356.388550,929.523865 1372.947754,917.653992   C1383.634644,909.993530 1392.055054,900.231995 1399.967407,889.923645   C1397.458496,895.251526 1395.304321,900.783264 1392.381226,905.873291   C1377.162476,932.373169 1361.768433,958.772522 1346.395142,985.183594   C1332.860229,1008.436646 1319.235596,1031.637573 1305.717896,1054.900757   C1290.614014,1080.893799 1275.586060,1106.931030 1260.525146,1132.948975   C1254.201050,1143.874268 1247.848145,1154.783081 1241.589111,1165.745483   C1240.800293,1167.127319 1240.505615,1168.791260 1239.970215,1170.717896   C1231.014771,1167.938354 1222.072754,1164.760986 1213.124512,1161.600952   C1212.372192,1161.335327 1211.578857,1161.185547 1210.417725,1160.910156  z" />
<path fill="#51CFF4" stroke="none" d=" M623.384644,1241.010010   C624.349548,1232.220703 625.767029,1223.404297 626.972229,1214.559204   C628.916809,1200.288086 630.736694,1185.999756 632.581116,1171.715088   C634.404602,1157.593384 636.186035,1143.466064 637.998840,1129.343018   C640.148865,1112.592773 642.311890,1095.844116 644.470825,1079.094971   C646.312134,1064.809692 648.146118,1050.523438 650.000610,1036.239868   C651.833923,1022.120178 653.706604,1008.005554 655.529602,993.884583   C657.373718,979.599182 659.216431,965.313354 660.985657,951.018555   C662.063171,942.312256 663.000671,933.588562 664.002075,924.421631   C670.878357,925.685913 677.809387,927.207703 684.612915,929.171448   C691.258972,931.089661 697.774902,933.458801 704.611694,936.201782   C704.636353,937.570618 704.279602,938.352478 704.175476,939.166687   C701.780945,957.887756 699.400208,976.610718 697.045166,995.336792   C693.987793,1019.648499 691.033203,1043.973389 687.889709,1068.273926   C684.704102,1092.899658 681.304138,1117.497559 678.068848,1142.116943   C675.005920,1165.423828 672.034790,1188.742554 669.023315,1212.056152   C657.811462,1219.083252 646.578979,1226.077759 635.398865,1233.154907   C631.447388,1235.656006 627.623840,1238.359253 623.384644,1241.010010  z" />
<path fill="#48CCF4" stroke="none" d=" M669.386963,1212.010742   C672.034790,1188.742554 675.005920,1165.423828 678.068848,1142.116943   C681.304138,1117.497559 684.704102,1092.899658 687.889709,1068.273926   C691.033203,1043.973389 693.987793,1019.648499 697.045166,995.336792   C699.400208,976.610718 701.780945,957.887756 704.175476,939.166687   C704.279602,938.352478 704.636353,937.570618 704.942017,936.364746   C713.297791,938.600464 721.612000,941.169800 729.865967,943.919739   C734.385315,945.425415 738.803040,947.236328 743.634033,949.405762   C743.969849,950.732544 744.008118,951.572815 743.896423,952.392578   C741.618774,969.107300 739.272217,985.812805 737.047791,1002.534546   C735.019775,1017.779907 733.094727,1033.039307 731.171082,1048.298218   C729.081421,1064.874023 727.088257,1081.461914 724.973877,1098.034424   C723.173889,1112.143188 721.253784,1126.236694 719.401245,1140.338623   C717.268616,1156.572876 715.151917,1172.809204 713.028320,1189.044556   C705.574158,1192.916992 698.096436,1196.744995 690.672668,1200.675049   C683.669067,1204.382568 676.722351,1208.197510 669.386963,1212.010742  z" />
<path fill="#3BCAF9" stroke="none" d=" M713.399170,1189.002197   C715.151917,1172.809204 717.268616,1156.572876 719.401245,1140.338623   C721.253784,1126.236694 723.173889,1112.143188 724.973877,1098.034424   C727.088257,1081.461914 729.081421,1064.874023 731.171082,1048.298218   C733.094727,1033.039307 735.019775,1017.779907 737.047791,1002.534546   C739.272217,985.812805 741.618774,969.107300 743.896423,952.392578   C744.008118,951.572815 743.969849,950.732544 744.002258,949.478149   C756.645630,954.027039 769.286377,959.004272 781.934021,963.963806   C783.007080,964.384521 784.126648,964.686401 785.603271,965.515991   C784.313293,979.129395 782.686218,992.275574 780.964661,1005.409485   C779.113831,1019.528442 777.127625,1033.629639 775.286682,1047.749878   C773.466553,1061.710327 771.774597,1075.687256 769.988403,1089.652100   C768.181458,1103.778687 766.284790,1117.894165 764.508057,1132.024414   C762.958984,1144.344238 761.522217,1156.678101 760.035767,1169.005737   C760.035767,1169.005737 760.020691,1169.026367 759.733643,1169.034180   C758.969360,1169.288452 758.492065,1169.534790 758.014771,1169.781128   C743.266541,1176.174072 728.518250,1182.567017 713.399170,1189.002197  z" />
<path fill="#5FC6F9" stroke="none" d=" M1096.113281,197.946930   C1106.209961,202.271667 1116.320923,206.563522 1126.389526,210.952469   C1128.131226,211.711670 1129.693481,212.882370 1131.610107,214.355927   C1131.473145,215.755630 1131.171387,216.730759 1130.640747,217.559357   C1114.341431,243.014252 1098.039062,268.467224 1081.696411,293.894257   C1063.017578,322.955872 1044.262695,351.968628 1025.638550,381.065186   C1022.808533,385.486542 1020.506470,390.245758 1017.511108,394.879608   C1001.365295,394.580231 985.668640,394.249969 970.033936,393.582031   C972.028564,390.558777 974.086853,387.954010 975.874268,385.175079   C993.330566,358.035095 1010.745483,330.868408 1028.164062,303.704163   C1038.040283,288.302307 1047.882568,272.878571 1057.774170,257.486633   C1070.536011,237.628525 1083.332031,217.792465 1096.113281,197.946930  z" />
<path fill="#8DE8F0" stroke="none" d=" M986.987000,179.155975   C999.209778,179.500412 1011.432617,179.844849 1023.614990,180.776215   C1007.140869,206.951324 990.718872,232.547043 974.270813,258.126068   C947.124329,300.342773 919.926086,342.526184 892.850464,384.788300   C889.572144,389.905396 886.917908,395.422333 883.558594,400.832001   C869.756042,403.215485 856.369324,405.520905 843.000000,407.464783   C843.660522,405.592346 844.104614,403.954407 844.975769,402.588959   C866.178162,369.357819 887.381836,336.127350 908.677185,302.955750   C933.388489,264.463226 958.206116,226.038986 982.906311,187.539352   C984.572937,184.941528 985.640686,181.959381 986.987000,179.155975  z" />
<path fill="#33C1FA" stroke="none" d=" M760.416626,1168.980103   C761.522217,1156.678101 762.958984,1144.344238 764.508057,1132.024414   C766.284790,1117.894165 768.181458,1103.778687 769.988403,1089.652100   C771.774597,1075.687256 773.466553,1061.710327 775.286682,1047.749878   C777.127625,1033.629639 779.113831,1019.528442 780.964661,1005.409485   C782.686218,992.275574 784.313293,979.129395 785.978882,965.583252   C799.513611,971.253662 813.051453,977.329529 826.798584,984.113647   C826.671265,987.943359 826.384521,991.071289 825.989258,994.185364   C824.178467,1008.450195 822.347961,1022.712585 820.504028,1036.973145   C818.681274,1051.069946 816.825623,1065.162476 814.999451,1079.258911   C813.152039,1093.518921 811.256226,1107.773315 809.508667,1122.045532   C808.243713,1132.377075 807.186096,1142.734009 806.035950,1153.079590   C793.651978,1157.364502 781.263977,1161.637817 768.887207,1165.943359   C766.170227,1166.888550 763.492981,1167.947754 760.416626,1168.980103  z" />
<path fill="#0DB3F8" stroke="none" d=" M924.001648,1033.008301   C946.667786,1046.225830 969.680481,1058.889526 991.913025,1072.800171   C1020.094849,1090.433228 1047.647095,1109.072998 1075.450317,1127.309937   C1076.671875,1128.111206 1077.687256,1129.226685 1078.875732,1130.514282   C1071.222656,1129.886475 1063.511475,1128.722412 1055.757690,1128.047852   C1045.472900,1127.153442 1035.154785,1126.641602 1024.070435,1125.669800   C1006.132385,1125.275391 988.974854,1125.169067 971.817261,1125.109863   C971.217468,1125.107788 970.616028,1125.577148 970.015381,1125.826904   C952.678894,1127.218750 935.342346,1128.610474 917.132690,1130.006836   C914.667908,1129.891479 913.076294,1129.771729 911.228149,1129.632690   C912.030396,1123.061768 912.734253,1117.021240 913.510803,1110.990234   C915.322754,1096.918213 917.126709,1082.844971 919.015442,1068.783081   C920.618225,1056.850220 922.335205,1044.932617 924.001648,1033.008301  z" />
<path fill="#25B9F1" stroke="none" d=" M923.770996,1032.751587   C922.335205,1044.932617 920.618225,1056.850220 919.015442,1068.783081   C917.126709,1082.844971 915.322754,1096.918213 913.510803,1110.990234   C912.734253,1117.021240 912.030396,1123.061768 911.228149,1129.632690   C913.076294,1129.771729 914.667908,1129.891479 916.685852,1130.022217   C911.400330,1131.010254 905.685791,1131.972046 899.977173,1132.967773   C884.589111,1135.651611 869.199402,1138.326538 853.820984,1141.064697   C851.121399,1141.545166 848.473145,1142.313965 845.417114,1142.471436   C845.505188,1138.384277 845.978699,1134.775269 846.449341,1131.166138   C848.633362,1114.415649 850.829529,1097.666870 852.996277,1080.914185   C854.844299,1066.625000 856.687805,1052.335083 858.478577,1038.038696   C860.022034,1025.716675 861.488159,1013.385071 862.988464,1001.057739   C870.785950,1004.793518 878.702820,1008.301819 886.353882,1012.316650   C898.840576,1018.868835 911.153870,1025.751587 923.770996,1032.751587  z" />
<path fill="#44B4F8" stroke="none" d=" M1160.064697,231.930557   C1170.981812,239.726410 1181.898926,247.522247 1192.659912,255.802368   C1191.321655,257.880646 1190.042480,259.412231 1188.971924,261.077850   C1168.564819,292.827148 1148.171265,324.585083 1127.799683,356.357086   C1117.839600,371.891205 1107.929810,387.457489 1097.555908,403.004364   C1088.425659,401.836365 1079.731201,400.713165 1071.049927,399.495331   C1065.689575,398.743347 1060.349243,397.847290 1055.048828,396.662415   C1055.574463,395.253662 1055.929077,394.120331 1056.546265,393.154846   C1067.364136,376.232574 1078.188599,359.314453 1089.062378,342.428192   C1108.475342,312.281403 1127.932251,282.162994 1147.346680,252.017197   C1151.637451,245.354782 1155.828003,238.627808 1160.064697,231.930557  z" />
<path fill="#72DDF2" stroke="none" d=" M1051.990967,185.162552   C1059.924805,186.895691 1067.864868,188.601746 1075.788818,190.378708   C1078.123047,190.902161 1080.412231,191.626236 1082.644287,192.813629   C1081.361816,194.956192 1080.041382,196.469254 1078.969604,198.141708   C1058.424805,230.201813 1037.947510,262.305206 1017.376465,294.348480   C998.151123,324.295532 978.797546,354.160309 959.609741,384.131287   C957.681274,387.143616 956.509827,390.640594 954.551208,393.952545   C944.407166,394.730438 934.698975,395.468445 924.600098,396.175110   C922.132080,396.366638 920.054810,396.589539 917.995361,396.455139   C918.375732,395.188385 918.604736,394.194214 919.120300,393.381897   C931.220581,374.316620 943.295288,355.234741 955.488892,336.229156   C982.388733,294.301666 1009.373779,252.428864 1036.269287,210.498611   C1041.634888,202.133484 1046.756714,193.611954 1051.990967,185.162552  z" />
<path fill="#33A9F7" stroke="none" d=" M1097.997314,403.009155   C1107.929810,387.457489 1117.839600,371.891205 1127.799683,356.357086   C1148.171265,324.585083 1168.564819,292.827148 1188.971924,261.077850   C1190.042480,259.412231 1191.321655,257.880646 1192.805664,256.120972   C1202.595215,262.999664 1212.080444,270.047333 1221.574097,277.083954   C1222.609253,277.851196 1223.691406,278.555115 1224.844238,279.954224   C1224.366333,281.813721 1223.917114,283.085297 1223.207764,284.189728   C1199.142822,321.653137 1175.008301,359.071991 1151.018188,396.583191   C1147.664429,401.827301 1145.001953,407.513611 1141.661621,412.842621   C1137.294678,411.749237 1133.294678,410.766937 1129.274658,409.875763   C1118.853638,407.565521 1108.423584,405.295319 1097.997314,403.009155  z" />
<path fill="#7FE2F1" stroke="none" d=" M1051.627441,184.981110   C1046.756714,193.611954 1041.634888,202.133484 1036.269287,210.498611   C1009.373779,252.428864 982.388733,294.301666 955.488892,336.229156   C943.295288,355.234741 931.220581,374.316620 919.120300,393.381897   C918.604736,394.194214 918.375732,395.188385 917.558228,396.515411   C906.060242,398.206604 895.017334,399.480286 883.974365,400.753967   C886.917908,395.422333 889.572144,389.905396 892.850464,384.788300   C919.926086,342.526184 947.124329,300.342773 974.270813,258.126068   C990.718872,232.547043 1007.140869,206.951324 1023.843567,181.152740   C1033.162964,182.228134 1042.213379,183.513901 1051.627441,184.981110  z" />
<path fill="#52BDF8" stroke="none" d=" M1159.903564,231.618698   C1155.828003,238.627808 1151.637451,245.354782 1147.346680,252.017197   C1127.932251,282.162994 1108.475342,312.281403 1089.062378,342.428192   C1078.188599,359.314453 1067.364136,376.232574 1056.546265,393.154846   C1055.929077,394.120331 1055.574463,395.253662 1054.596924,396.656677   C1049.392212,396.683746 1044.688477,396.363068 1039.532837,396.031189   C1032.040649,395.629578 1025.000366,395.239136 1017.960205,394.848694   C1020.506470,390.245758 1022.808533,385.486542 1025.638550,381.065186   C1044.262695,351.968628 1063.017578,322.955872 1081.696411,293.894257   C1098.039062,268.467224 1114.341431,243.014252 1130.640747,217.559357   C1131.171387,216.730759 1131.473145,215.755630 1131.937500,214.507843   C1141.243042,219.880188 1150.492676,225.593521 1159.903564,231.618698  z" />
<path fill="#2FC3F4" stroke="none" d=" M862.675781,1000.901001   C861.488159,1013.385071 860.022034,1025.716675 858.478577,1038.038696   C856.687805,1052.335083 854.844299,1066.625000 852.996277,1080.914185   C850.829529,1097.666870 848.633362,1114.415649 846.449341,1131.166138   C845.978699,1134.775269 845.505188,1138.384277 845.009399,1142.397949   C837.399902,1144.855103 829.817810,1146.921265 822.227112,1148.955322   C817.107117,1150.327271 811.975098,1151.654175 806.442200,1153.040405   C807.186096,1142.734009 808.243713,1132.377075 809.508667,1122.045532   C811.256226,1107.773315 813.152039,1093.518921 814.999451,1079.258911   C816.825623,1065.162476 818.681274,1051.069946 820.504028,1036.973145   C822.347961,1022.712585 824.178467,1008.450195 825.989258,994.185364   C826.384521,991.071289 826.671265,987.943359 827.015564,984.377930   C838.803101,989.537476 850.583069,995.140869 862.675781,1000.901001  z" />
<path fill="#1BA5F7" stroke="none" d=" M1142.019531,412.995209   C1145.001953,407.513611 1147.664429,401.827301 1151.018188,396.583191   C1175.008301,359.071991 1199.142822,321.653137 1223.207764,284.189728   C1223.917114,283.085297 1224.366333,281.813721 1224.996582,280.262695   C1231.962891,285.364044 1238.869385,290.822723 1245.747314,296.900635   C1222.502441,333.648956 1199.238647,369.747620 1176.131958,405.946564   C1173.325195,410.343567 1171.363647,415.280090 1168.627197,419.921204   C1159.502441,417.582306 1150.760986,415.288757 1142.019531,412.995209  z" />
<path fill="#99EDF0" stroke="none" d=" M986.575073,179.240784   C985.640686,181.959381 984.572937,184.941528 982.906311,187.539352   C958.206116,226.038986 933.388489,264.463226 908.677185,302.955750   C887.381836,336.127350 866.178162,369.357819 844.975769,402.588959   C844.104614,403.954407 843.660522,405.592346 842.594482,407.516876   C839.777405,408.337585 837.383301,408.744720 834.617004,409.253662   C830.949768,410.146881 827.654724,410.938293 824.359619,411.729736   C824.964355,409.575378 825.091980,407.116455 826.244324,405.311798   C849.489990,368.906860 872.858643,332.580444 896.191528,296.231171   C918.895752,260.861206 941.598206,225.490143 964.263184,190.095047   C965.957825,187.448593 967.345093,184.605331 968.931152,181.511948   C972.985046,180.778824 976.984619,180.403030 980.980164,179.988434   C982.712097,179.808701 984.435791,179.548965 986.575073,179.240784  z" />
<path fill="#65D8F3" stroke="none" d=" M954.987061,393.912659   C956.509827,390.640594 957.681274,387.143616 959.609741,384.131287   C978.797546,354.160309 998.151123,324.295532 1017.376465,294.348480   C1037.947510,262.305206 1058.424805,230.201813 1078.969604,198.141708   C1080.041382,196.469254 1081.361816,194.956192 1082.833740,193.158905   C1087.322388,194.393784 1091.543457,195.838654 1095.938965,197.615234   C1083.332031,217.792465 1070.536011,237.628525 1057.774170,257.486633   C1047.882568,272.878571 1038.040283,288.302307 1028.164062,303.704163   C1010.745483,330.868408 993.330566,358.035095 975.874268,385.175079   C974.086853,387.954010 972.028564,390.558777 969.571228,393.606689   C964.359985,393.950256 959.673523,393.931458 954.987061,393.912659  z" />
<path fill="#159FF7" stroke="none" d=" M1169.010376,419.966583   C1171.363647,415.280090 1173.325195,410.343567 1176.131958,405.946564   C1199.238647,369.747620 1222.502441,333.648956 1245.882568,297.213989   C1249.953979,300.029114 1253.861450,303.150116 1257.905029,306.581207   C1234.182373,344.007721 1210.310059,381.115509 1186.506592,418.267303   C1185.371704,420.038513 1184.844604,422.199188 1183.685791,424.418335   C1178.561401,423.094330 1173.785889,421.530457 1169.010376,419.966583  z" />
<path fill="#159FF7" stroke="none" d=" M970.477600,1125.902710   C970.616028,1125.577148 971.217468,1125.107788 971.817261,1125.109863   C988.974854,1125.169067 1006.132385,1125.275391 1023.631836,1125.600342   C1006.295837,1125.877075 988.617859,1125.927734 970.477600,1125.902710  z" />
<path fill="#5FC6F9" stroke="none" d=" M458.529358,1310.996338   C463.049805,1310.997681 467.101868,1311.005005 471.621948,1311.031372   C471.399689,1311.352905 470.709320,1311.918945 470.019104,1311.918701   C458.470612,1311.914429 446.922150,1311.839355 435.133667,1311.412354   C442.616089,1311.030518 450.338531,1311.016479 458.529358,1310.996338  z" />
<path fill="#72DDF2" stroke="none" d=" M277.571106,1154.154297   C277.946167,1163.315308 277.957428,1172.716919 277.942993,1182.587891   C277.616119,1179.578247 277.113159,1176.102173 277.058258,1172.619019   C276.962524,1166.546631 277.142792,1160.469727 277.571106,1154.154297  z" />
<path fill="#1099F6" stroke="none" d=" M323.726990,952.087402   C323.951538,952.578979 323.852814,953.150574 323.473694,953.891174   C323.263428,953.429199 323.333557,952.798340 323.726990,952.087402  z" />
<path fill="#1494F6" stroke="none" d=" M1649.897461,816.758301   C1649.512817,816.585938 1649.199707,816.085938 1648.933228,815.283447   C1649.309448,815.464233 1649.639282,815.947388 1649.897461,816.758301  z" />
<path fill="#33C1FA" stroke="none" d=" M758.313232,1169.852295   C758.492065,1169.534790 758.969360,1169.288452 759.722046,1169.039673   C759.535522,1169.332642 759.073608,1169.627930 758.313232,1169.852295  z" />
<path fill="#8DE8F0" stroke="none" d=" M338.172180,1279.338013   C338.601288,1279.221313 339.119537,1279.385132 339.798889,1279.775879   C339.393768,1279.874756 338.827515,1279.746704 338.172180,1279.338013  z" />
<path fill="#7FE2F1" stroke="none" d=" M392.065399,1303.303711   C392.479584,1303.137817 393.020447,1303.259155 393.770264,1303.568237   C393.383514,1303.700928 392.787781,1303.645874 392.065399,1303.303711  z" />
<path fill="#A6F6FB" stroke="none" d=" M534.716675,533.985352   C534.838928,534.264709 534.701965,534.613159 534.241943,534.950317   C534.098389,534.644165 534.278015,534.349304 534.716675,533.985352  z" />
<path fill="#62F4FE" stroke="none" d=" M1342.966309,1223.296387   C1343.179443,1223.130615 1343.446899,1223.278687 1343.829834,1223.662842   C1343.669922,1223.743286 1343.361694,1223.647095 1342.966309,1223.296387  z" />
<path fill="#5BD3F3" stroke="none" d=" M573.264832,1277.834351   C573.164978,1277.533447 573.366821,1277.338257 573.817017,1277.119385   C573.848694,1277.324951 573.682434,1277.606445 573.264832,1277.834351  z" />
<path fill="#8DE8F0" stroke="none" d=" M337.050934,1278.262329   C337.284943,1278.115845 337.530304,1278.281006 337.827271,1278.721924   C337.564911,1278.959961 337.292725,1278.818726 337.050934,1278.262329  z" />
<path fill="#159FF7" stroke="none" d=" M823.983398,411.803528   C827.654724,410.938293 830.949768,410.146881 834.617798,409.633667   C834.327454,411.941223 833.977539,414.147278 832.949341,415.970856   C826.661865,427.121979 820.272644,438.216736 813.820862,449.274017   C795.555969,480.576630 777.177917,511.813416 758.968689,543.148315   C737.834778,579.516174 716.876587,615.986084 695.761414,652.364929   C674.730713,688.598328 653.596802,724.771851 632.514465,760.975220   C618.375977,785.254456 604.188354,809.505432 590.145691,833.840088   C584.591553,843.464966 579.371033,853.282288 573.998596,863.012024   C561.564575,862.368896 549.133118,861.285461 536.695679,861.211792   C525.263245,861.144043 513.824646,862.169800 502.388092,862.699707   C499.564789,862.830505 496.738953,862.906555 493.457153,863.005493   C496.566132,856.304077 499.943573,849.496216 503.731445,842.924866   C518.921265,816.572876 534.218933,790.282898 549.514221,763.991699   C563.054199,740.717651 576.666016,717.485352 590.205627,694.210999   C603.912781,670.648560 617.553528,647.047485 631.253540,623.480835   C650.132446,591.005554 669.065063,558.561401 687.926758,526.076050   C704.118713,498.188934 720.264099,470.274719 736.345337,442.323792   C737.283447,440.693298 737.462585,438.626099 737.992920,436.357635   C753.725769,431.018402 769.368591,425.759644 785.224792,421.251678   C797.884094,417.652527 810.803345,414.967865 823.983398,411.803528  z" />
<path fill="#337AE6" stroke="none" d=" M325.825256,951.185059   C325.885254,951.390747 325.690613,951.744141 325.187195,952.191895   C325.109131,951.968445 325.339905,951.650635 325.825256,951.185059  z" />
<path fill="#0CA2EB" stroke="none" d=" M1400.045166,889.588623   C1392.055054,900.231995 1383.634644,909.993530 1372.947754,917.653992   C1356.388550,929.523865 1338.133301,936.821655 1316.971680,939.041077   C1290.893311,941.070068 1267.560425,932.916931 1244.064087,925.592896   C1244.956909,923.064514 1245.645630,920.823975 1246.660156,918.742004   C1260.942993,889.425537 1275.214478,860.103333 1289.601929,830.838074   C1304.360107,800.818481 1319.242432,770.859802 1334.362915,741.041748   C1343.078125,752.089539 1352.000977,762.623474 1359.826294,773.917847   C1380.359619,803.554321 1396.588013,835.538574 1410.015381,869.326294   C1409.618652,871.111816 1409.240845,872.528076 1408.863037,873.944336   C1405.949707,879.047424 1403.036255,884.150574 1400.045166,889.588623  z" />
<path fill="#55E5FD" stroke="none" d=" M1409.222900,873.914307   C1409.240845,872.528076 1409.618652,871.111816 1410.315918,869.141052   C1418.839966,848.411804 1420.374146,827.548157 1416.005615,806.399353   C1413.611328,794.807678 1409.860840,783.496216 1407.085938,772.002930   C1408.624512,770.649719 1410.065918,769.508362 1410.932617,768.030090   C1420.012207,752.545166 1429.001709,737.007385 1438.012695,721.482178   C1449.443115,701.788147 1460.824219,682.065247 1472.315308,662.406555   C1479.855957,649.506042 1487.553345,636.697083 1495.180664,623.847168   C1508.348511,637.701782 1521.516357,651.556458 1534.817139,665.715576   C1533.255859,667.114075 1530.880249,667.808411 1529.969116,669.361877   C1513.999756,696.587830 1498.238281,723.935669 1482.371704,751.222168   C1468.844116,774.486267 1455.198730,797.682007 1441.684937,820.954163   C1432.257812,837.188660 1423.000122,853.521545 1413.557495,869.746887   C1412.622803,871.353149 1410.926025,872.515808 1409.222900,873.914307  z" />
<path fill="#2CB8F9" stroke="none" d=" M1168.627197,419.921204   C1173.785889,421.530457 1178.561401,423.094330 1183.678467,424.787781   C1184.919922,425.367828 1185.819702,425.818237 1186.739746,426.849304   C1180.641846,437.682495 1174.433838,447.882446 1168.424072,458.197968   C1153.229492,484.278717 1138.108276,510.402283 1122.992188,536.528625   C1118.271118,544.688416 1113.660034,552.911865 1108.566650,561.082764   C1094.084106,558.389099 1080.033691,555.718872 1065.544067,553.034424   C1062.829346,552.762634 1060.555786,552.483215 1058.277588,552.251221   C1047.843262,551.188293 1037.407471,550.138672 1026.512207,549.064453   C1024.391357,549.017761 1022.729309,548.934570 1021.070190,548.973267   C1007.695190,549.284851 994.293762,549.209045 980.955017,550.083923   C971.257019,550.719971 961.642029,552.621521 952.003540,553.594482   C953.209229,551.091187 954.372803,548.935730 955.597839,546.815796   C966.897888,527.261414 978.163574,507.687103 989.526855,488.169556   C1005.400635,460.904541 1021.427124,433.727905 1037.156128,406.379974   C1038.879761,403.383118 1039.078735,399.509399 1039.984741,396.042389   C1044.688477,396.363068 1049.392212,396.683746 1054.547974,397.010193   C1060.349243,397.847290 1065.689575,398.743347 1071.049927,399.495331   C1079.731201,400.713165 1088.425659,401.836365 1097.555908,403.004333   C1108.423584,405.295319 1118.853638,407.565521 1129.274658,409.875763   C1133.294678,410.766937 1137.294678,411.749237 1141.661621,412.842621   C1150.760986,415.288757 1159.502441,417.582306 1168.627197,419.921204  z" />
<path fill="#39C7FA" stroke="none" d=" M1108.998779,561.106201   C1113.660034,552.911865 1118.271118,544.688416 1122.992188,536.528625   C1138.108276,510.402283 1153.229492,484.278717 1168.424072,458.197968   C1174.433838,447.882446 1180.641846,437.682495 1186.920654,427.101959   C1196.259399,429.649841 1205.765991,431.761871 1214.553345,435.544617   C1240.971558,446.916962 1267.245117,458.651001 1293.291626,470.848969   C1304.100952,475.911102 1314.191650,482.507843 1324.609131,488.933044   C1323.120972,491.198364 1321.327515,492.758667 1320.190308,494.702911   C1299.043579,530.859192 1277.933350,567.037170 1256.953491,603.290405   C1254.843872,606.935852 1253.622192,611.095093 1251.632080,614.960815   C1248.874146,613.782715 1246.500244,612.595215 1244.066528,611.546753   C1225.056519,603.356750 1206.034912,595.193359 1186.686646,586.868042   C1174.902588,582.804626 1163.448853,578.895020 1151.736816,574.737305   C1146.603271,572.931152 1141.776855,571.192322 1136.841797,569.854553   C1127.933716,567.439697 1118.960571,565.264587 1109.899048,562.746643   C1109.521851,562.037964 1109.260376,561.572083 1108.998779,561.106201  z" />
<path fill="#44D2FB" stroke="none" d=" M1251.988525,615.015930   C1253.622192,611.095093 1254.843872,606.935852 1256.953491,603.290405   C1277.933350,567.037170 1299.043579,530.859192 1320.190308,494.702911   C1321.327515,492.758667 1323.120972,491.198364 1324.823242,489.191528   C1340.711670,498.852783 1356.735229,508.278290 1371.964722,518.847900   C1388.283203,530.173462 1403.863770,542.563416 1419.735840,554.529236   C1421.183350,555.620544 1422.409424,557.005371 1423.705078,558.816040   C1419.997314,564.823853 1416.025513,570.094666 1412.699951,575.745728   C1398.408691,600.030090 1384.013306,624.261780 1370.261475,648.851379   C1363.446899,661.036499 1354.238037,672.051086 1350.674805,685.924438   C1328.783325,664.483643 1304.893677,646.148193 1278.836548,630.701843   C1271.196289,626.172791 1262.983521,622.609314 1254.982422,618.301025   C1253.950562,617.004578 1252.969604,616.010254 1251.988525,615.015930  z" />
<path fill="#4EDEFC" stroke="none" d=" M1350.967041,686.089661   C1354.238037,672.051086 1363.446899,661.036499 1370.261475,648.851379   C1384.013306,624.261780 1398.408691,600.030090 1412.699951,575.745728   C1416.025513,570.094666 1419.997314,564.823853 1423.884399,559.093567   C1431.543945,564.895508 1439.334229,570.612122 1446.368652,577.142944   C1462.712646,592.316833 1478.692017,607.883545 1494.999878,623.569092   C1487.553345,636.697083 1479.855957,649.506042 1472.315308,662.406555   C1460.824219,682.065247 1449.443115,701.788147 1438.012695,721.482178   C1429.001709,737.007385 1420.012207,752.545166 1410.932617,768.030090   C1410.065918,769.508362 1408.624512,770.649719 1406.852051,771.754272   C1398.903687,757.126770 1392.343262,742.212463 1383.955078,728.408936   C1377.140503,717.195129 1368.133301,707.313721 1359.951172,696.548096   C1356.858154,692.866394 1353.912598,689.478027 1350.967041,686.089661  z" />
<path fill="#22ADF8" stroke="none" d=" M1039.532837,396.031189   C1039.078735,399.509399 1038.879761,403.383118 1037.156128,406.379974   C1021.427124,433.727905 1005.400635,460.904541 989.526855,488.169556   C978.163574,507.687103 966.897888,527.261414 955.597839,546.815796   C954.372803,548.935730 953.209229,551.091187 951.664124,553.764771   C943.855591,556.564880 936.265625,558.466003 928.967590,561.158447   C896.132812,573.272339 868.250610,592.047302 849.981934,622.700684   C836.686523,645.009277 832.214783,669.477966 835.943176,695.112427   C837.411499,705.207581 840.750916,715.030518 842.871826,725.061157   C839.092712,731.477112 835.843201,737.903931 832.238220,744.124756   C818.756287,767.389221 805.134094,790.572449 791.609558,813.812378   C776.248169,840.208496 760.881348,866.601929 745.685547,893.093384   C744.191162,895.698486 743.874756,898.979309 743.011536,901.946533   C723.695435,896.014099 704.432129,889.901184 685.042175,884.220886   C674.405457,881.104675 663.554932,878.717957 652.401855,875.570679   C652.513611,873.072815 652.606812,870.774475 653.604919,868.979248   C658.856262,859.534424 664.303650,850.197693 669.743225,840.858582   C683.299133,817.584534 696.911865,794.343689 710.456543,771.063171   C725.757202,744.764526 740.992554,718.427979 756.286011,692.125183   C768.320679,671.427124 780.432800,650.774170 792.452026,630.067200   C807.559631,604.039368 822.572937,577.956726 837.691467,551.935242   C851.222168,528.646851 864.874390,505.429047 878.410828,482.143951   C893.619202,455.982971 908.810791,429.811707 923.822693,403.538116   C924.971252,401.527954 924.636169,398.670197 924.990723,396.206421   C934.698975,395.468445 944.407166,394.730438 954.551270,393.952576   C959.673523,393.931458 964.359985,393.950256 969.509155,393.944366   C985.668640,394.249969 1001.365295,394.580231 1017.511108,394.879578   C1025.000366,395.239136 1032.040649,395.629578 1039.532837,396.031189  z" />
<path fill="#1BA5F7" stroke="none" d=" M924.600037,396.175110   C924.636169,398.670197 924.971252,401.527954 923.822693,403.538116   C908.810791,429.811707 893.619202,455.982971 878.410828,482.143951   C864.874390,505.429047 851.222168,528.646851 837.691467,551.935242   C822.572937,577.956726 807.559631,604.039368 792.452026,630.067200   C780.432800,650.774170 768.320679,671.427124 756.286011,692.125183   C740.992554,718.427979 725.757202,744.764526 710.456543,771.063171   C696.911865,794.343689 683.299133,817.584534 669.743225,840.858582   C664.303650,850.197693 658.856262,859.534424 653.604919,868.979248   C652.606812,870.774475 652.513611,873.072815 652.004639,875.537354   C630.341858,872.266602 608.681213,868.573608 587.009094,864.949890   C582.947327,864.270691 578.839294,863.868347 574.375610,863.175171   C579.371033,853.282288 584.591553,843.464966 590.145691,833.840088   C604.188354,809.505432 618.375977,785.254456 632.514465,760.975220   C653.596802,724.771851 674.730713,688.598328 695.761414,652.364929   C716.876587,615.986084 737.834778,579.516174 758.968689,543.148315   C777.177917,511.813416 795.555969,480.576630 813.820862,449.274017   C820.272644,438.216736 826.661865,427.121979 832.949341,415.970856   C833.977539,414.147278 834.327454,411.941223 834.989990,409.531891   C837.383301,408.744720 839.777405,408.337585 842.577087,407.878418   C856.369324,405.520905 869.756042,403.215485 883.558594,400.832001   C895.017334,399.480286 906.060242,398.206604 917.540344,396.872681   C920.054810,396.589539 922.132080,396.366638 924.600037,396.175110  z" />
<path fill="#3BCAF9" stroke="none" d=" M1013.010010,1030.940674   C993.486450,1019.943237 973.972473,1008.928467 954.434204,997.957092   C947.056213,993.814026 939.622070,989.770935 932.270325,985.177246   C942.420288,967.124756 952.457703,949.545044 962.619934,932.037781   C977.449951,906.488770 992.345337,880.977478 1007.279968,855.489441   C1009.313171,852.019531 1010.681396,848.701538 1008.371338,845.063538   C1015.765076,848.700562 1018.071777,847.968140 1021.596558,840.778870   C1026.941895,829.876221 1032.169312,818.915710 1037.503784,808.007690   C1053.291626,775.724854 1069.070435,743.437500 1084.923218,711.186584   C1098.650391,683.260071 1112.505127,655.396240 1126.203979,627.455933   C1127.496826,624.819092 1128.078369,621.833435 1128.994385,619.005859   C1128.998535,619.001892 1129.004883,618.995117 1129.359375,619.150024   C1141.474243,622.208191 1153.234619,625.111389 1165.186035,628.235535   C1165.921265,628.640869 1166.465454,628.825317 1166.954590,629.365967   C1162.333618,639.343018 1157.852905,649.005310 1153.186157,658.576782   C1138.008301,689.707581 1122.774048,720.811035 1107.539429,751.914124   C1090.765747,786.158875 1073.974243,820.394897 1057.174805,854.626953   C1053.784424,861.535461 1054.656250,864.040955 1061.764404,866.757751   C1069.997070,869.904602 1078.312134,872.838562 1086.520630,876.046082   C1091.092651,877.832642 1095.520630,879.987732 1099.666870,882.034790   C1096.222412,886.696838 1092.864990,891.148865 1090.067627,895.928772   C1066.633789,935.971741 1043.261353,976.050903 1019.995728,1016.191895   C1017.277222,1020.882141 1015.320068,1026.013672 1013.010010,1030.940674  z" />
<path fill="#2CB8F9" stroke="none" d=" M743.339539,902.108398   C743.874756,898.979309 744.191162,895.698486 745.685547,893.093384   C760.881348,866.601929 776.248169,840.208496 791.609558,813.812378   C805.134094,790.572449 818.756287,767.389221 832.238220,744.124756   C835.843201,737.903931 839.092712,731.477112 843.102234,725.294861   C844.580811,727.219177 845.469360,728.990234 846.343323,730.768433   C851.461487,741.182434 857.307617,751.092224 866.092651,759.370239   C871.221252,764.320068 875.788818,769.520874 881.232422,773.533020   C891.894531,781.391479 903.045105,788.587280 914.195312,796.302979   C915.942688,797.678345 917.488098,798.808044 919.023560,800.333374   C917.719849,803.926819 916.747009,807.304749 915.072327,810.288818   C910.027344,819.278442 904.683960,828.099976 899.502563,837.013550   C884.208862,863.323547 868.889465,889.618774 853.684998,915.980225   C848.960571,924.171387 844.571106,932.555786 840.028442,940.851807   C807.908142,927.991272 775.787842,915.130737 743.339539,902.108398  z" />
<path fill="#33C1FA" stroke="none" d=" M840.340576,941.035522   C844.571106,932.555786 848.960571,924.171387 853.684998,915.980225   C868.889465,889.618774 884.208862,863.323547 899.502563,837.013550   C904.683960,828.099976 910.027344,819.278442 915.072327,810.288818   C916.747009,807.304749 917.719849,803.926819 919.373474,800.396423   C933.803101,807.695801 947.855225,815.360718 961.964172,822.919495   C963.814331,823.910767 965.955933,824.358154 968.144836,825.346313   C969.866150,826.582581 971.333435,827.680664 972.955688,828.453247   C984.618652,834.006653 996.313110,839.494141 1007.997559,845.002441   C1010.681396,848.701538 1009.313171,852.019531 1007.279968,855.489441   C992.345337,880.977478 977.449951,906.488770 962.619934,932.037781   C952.457703,949.545044 942.420288,967.124756 932.046936,984.913086   C928.629578,983.685303 925.472595,982.257385 922.358521,980.741211   C896.346313,968.076782 870.343567,955.392883 844.330444,942.730347   C843.141174,942.151428 841.880249,941.719604 840.340576,941.035522  z" />
<path fill="#4EDEFC" stroke="none" d=" M1244.011475,925.954468   C1267.560425,932.916931 1290.893311,941.070068 1316.543213,939.081970   C1309.980469,950.955444 1302.870972,962.734985 1295.936768,974.616821   C1282.108887,998.311035 1268.386597,1022.066956 1254.603027,1045.787109   C1241.153442,1068.932373 1227.680786,1092.064331 1214.220581,1115.203613   C1208.703003,1124.688477 1203.159790,1134.158691 1197.711914,1143.683472   C1196.905151,1145.093994 1196.561646,1146.769653 1195.981812,1148.705566   C1181.011841,1138.923950 1166.062012,1128.762451 1151.117188,1118.593262   C1146.592041,1115.514160 1142.081421,1112.413696 1137.295654,1108.759033   C1139.632324,1103.033936 1141.996338,1097.733032 1144.885254,1092.735718   C1157.011597,1071.759033 1169.325195,1050.890747 1181.513184,1029.949707   C1196.789917,1003.701660 1212.064941,977.452087 1227.224365,951.136169   C1232.014648,942.820435 1236.431519,934.289551 1241.392090,925.893555   C1242.513916,925.938232 1243.262695,925.946350 1244.011475,925.954468  z" />
<path fill="#48D8FC" stroke="none" d=" M1241.019165,925.857056   C1236.431519,934.289551 1232.014648,942.820435 1227.224365,951.136169   C1212.064941,977.452087 1196.789917,1003.701660 1181.513184,1029.949707   C1169.325195,1050.890747 1157.011597,1071.759033 1144.885254,1092.735718   C1141.996338,1097.733032 1139.632324,1103.033936 1137.016602,1108.564453   C1117.439453,1096.208984 1097.872925,1083.484497 1078.131592,1070.073486   C1078.565308,1067.192139 1078.746704,1064.750854 1079.848145,1062.839966   C1090.874023,1043.709473 1102.041504,1024.660278 1113.188477,1005.599670   C1132.787598,972.085938 1152.400146,938.580017 1172.373291,905.104980   C1181.483765,907.777344 1190.228149,910.415588 1199.232910,913.308716   C1201.059692,914.048828 1202.620605,914.552795 1204.193237,915.016357   C1216.467285,918.634216 1228.743530,922.244507 1241.019165,925.857056  z" />
<path fill="#44D2FB" stroke="none" d=" M1172.007080,905.070923   C1152.400146,938.580017 1132.787598,972.085938 1113.188477,1005.599670   C1102.041504,1024.660278 1090.874023,1043.709473 1079.848145,1062.839966   C1078.746704,1064.750854 1078.565308,1067.192139 1077.924805,1069.814453   C1070.218506,1065.637939 1062.526733,1061.062744 1054.873657,1056.424316   C1041.098022,1048.075317 1027.345581,1039.688232 1013.296753,1031.128906   C1015.320068,1026.013672 1017.277222,1020.882141 1019.995728,1016.191895   C1043.261353,976.050903 1066.633789,935.971741 1090.067627,895.928772   C1092.864990,891.148865 1096.222412,886.696838 1100.061523,882.042358   C1103.537842,882.656433 1106.272949,883.320862 1109.336060,884.137573   C1120.154907,887.921509 1130.619385,891.632385 1141.148804,895.147949   C1145.683228,896.661926 1150.352539,897.771545 1155.223267,899.307739   C1160.993042,901.390686 1166.500000,903.230774 1172.007080,905.070923  z" />
<path fill="#14AAED" stroke="none" d=" M1241.392090,925.893555   C1228.743530,922.244507 1216.467285,918.634216 1204.193237,915.016357   C1202.620605,914.552795 1201.059692,914.048828 1199.242065,912.897156   C1199.490479,910.161255 1199.633545,907.918213 1200.543091,906.047974   C1215.760498,874.759338 1231.030518,843.496094 1246.377930,812.270935   C1260.333252,783.878357 1274.442871,755.561584 1288.379028,727.159668   C1292.109253,719.556885 1295.453857,711.764893 1299.272949,704.205322   C1301.370972,706.055115 1303.250977,707.683899 1304.959229,709.476440   C1314.633179,719.627441 1324.265869,729.817749 1333.956299,740.213867   C1334.000000,740.433044 1334.070435,740.874512 1334.070312,740.874512   C1319.242432,770.859802 1304.360107,800.818481 1289.601929,830.838074   C1275.214478,860.103333 1260.942993,889.425537 1246.660156,918.742004   C1245.645630,920.823975 1244.956909,923.064514 1244.064087,925.592896   C1243.262695,925.946350 1242.513916,925.938232 1241.392090,925.893555  z" />
<path fill="#104EE8" stroke="none" d=" M1334.363037,741.041748   C1334.070435,740.874512 1334.000000,740.433044 1334.027954,739.860718   C1341.389526,726.323181 1348.674072,713.329773 1356.124390,700.432007   C1356.974121,698.960754 1358.751465,698.025330 1360.098633,696.841492   C1368.133301,707.313721 1377.140503,717.195129 1383.955078,728.408936   C1392.343262,742.212463 1398.903687,757.126770 1406.488037,771.809692   C1409.860840,783.496216 1413.611328,794.807678 1416.005615,806.399353   C1420.374146,827.548157 1418.839966,848.411804 1410.334961,868.771729   C1396.588013,835.538574 1380.359619,803.554321 1359.826294,773.917847   C1352.000977,762.623474 1343.078125,752.089539 1334.363037,741.041748  z" />
<path fill="#61F2FF" stroke="none" d=" M865.927551,759.083984   C857.307617,751.092224 851.461487,741.182434 846.343323,730.768433   C845.469360,728.990234 844.580811,727.219177 843.468628,725.211121   C840.750916,715.030518 837.411499,705.207581 835.943176,695.112427   C832.214783,669.477966 836.686523,645.009277 849.981934,622.700684   C868.250610,592.047302 896.132812,573.272339 928.967590,561.158447   C936.265625,558.466003 943.855591,556.564880 951.650574,554.129150   C961.642029,552.621521 971.257019,550.719971 980.955017,550.083923   C994.293762,549.209045 1007.695190,549.284851 1021.070190,548.973267   C1022.729309,548.934570 1024.391357,549.017761 1026.509399,549.432129   C1023.536682,556.436035 1020.301514,563.162476 1016.634888,569.644897   C1009.513916,582.234375 1002.238525,594.739746 994.785706,607.134705   C993.758057,608.843750 991.467468,610.600647 989.567078,610.849365   C974.620483,612.805847 959.625854,614.395630 944.647400,616.109436   C938.944336,616.761902 934.972534,619.464966 932.451721,624.910950   C926.647400,637.450623 920.481934,649.824463 914.375671,662.222656   C900.760559,689.866394 887.115234,717.495483 873.423157,745.101135   C871.074463,749.836426 868.433472,754.426697 865.927551,759.083984  z" />
<path fill="#55E5FD" stroke="none" d=" M866.092651,759.370239   C868.433472,754.426697 871.074463,749.836426 873.423157,745.101135   C887.115234,717.495483 900.760559,689.866394 914.375671,662.222656   C920.481934,649.824463 926.647400,637.450623 932.451721,624.910950   C934.972534,619.464966 938.944336,616.761902 944.647400,616.109436   C959.625854,614.395630 974.620483,612.805847 989.567078,610.849365   C991.467468,610.600647 993.758057,608.843750 994.785706,607.134705   C1002.238525,594.739746 1009.513916,582.234375 1016.634888,569.644897   C1020.301514,563.162476 1023.536682,556.436035 1026.969482,549.452087   C1037.407471,550.138672 1047.843262,551.188293 1058.277588,552.251221   C1060.555786,552.483215 1062.829346,552.762634 1065.550781,553.433105   C1065.634277,555.610474 1065.682617,557.605408 1064.842896,559.102295   C1059.235352,569.098511 1053.354736,578.941345 1047.732544,588.929504   C1044.013672,595.536499 1040.577393,602.302673 1036.547363,608.997925   C1027.616089,609.333069 1019.149231,609.961914 1010.689209,609.880249   C1006.366577,609.838623 1004.171875,611.352478 1002.319519,615.167542   C985.585999,649.631165 968.683655,684.012817 951.797424,718.402161   C940.710144,740.981812 929.553345,763.527466 918.466309,786.107300   C916.864563,789.369568 915.479065,792.738037 913.993469,796.057373   C903.045105,788.587280 891.894531,781.391479 881.232422,773.533020   C875.788818,769.520874 871.221252,764.320068 866.092651,759.370239  z" />
<path fill="#51CFF4" stroke="none" d=" M1037.014648,608.997559   C1040.577393,602.302673 1044.013672,595.536499 1047.732544,588.929504   C1053.354736,578.941345 1059.235352,569.098511 1064.842896,559.102295   C1065.682617,557.605408 1065.634277,555.610474 1065.989990,553.447266   C1080.033691,555.718872 1094.084106,558.389099 1108.566650,561.082764   C1109.260376,561.572083 1109.521851,562.037964 1109.750366,563.069397   C1103.779785,574.300049 1097.743286,584.911804 1091.946289,595.652771   C1089.072021,600.978455 1086.638062,606.541748 1083.572021,611.998535   C1080.094604,611.667175 1077.049683,611.334839 1073.550659,611.001587   C1061.069214,610.333069 1049.041870,609.665283 1037.014648,608.997559  z" />
<path fill="#33A9F7" stroke="none" d=" M1167.009766,629.009705   C1166.465454,628.825317 1165.921265,628.640869 1165.240723,627.877197   C1166.817383,623.926880 1168.438721,620.505432 1170.260010,617.193970   C1175.804077,607.113708 1181.425537,597.075989 1187.016846,587.021729   C1206.034912,595.193359 1225.056519,603.356750 1244.066528,611.546753   C1246.500244,612.595215 1248.874146,613.782715 1251.632080,614.960815   C1252.969604,616.010254 1253.950562,617.004578 1254.939941,618.697144   C1247.949707,631.939209 1240.951050,644.483032 1233.599609,656.971802   C1228.831177,654.943726 1224.415527,652.970642 1219.776367,650.740295   C1218.093628,649.688354 1216.697876,648.735168 1215.165771,648.123535   C1199.126221,641.720886 1183.065063,635.372803 1167.009766,629.009705  z" />
<path fill="#48CCF4" stroke="none" d=" M1084.004883,611.997559   C1086.638062,606.541748 1089.072021,600.978455 1091.946289,595.652771   C1097.743286,584.911804 1103.779785,574.300049 1109.865967,563.312195   C1118.960571,565.264587 1127.933716,567.439697 1136.841797,569.854553   C1141.776855,571.192322 1146.603271,572.931152 1151.687500,575.092529   C1147.180054,584.074768 1142.323853,592.379028 1137.795410,600.858337   C1134.633057,606.779907 1131.919067,612.940979 1129.004883,618.995117   C1129.004883,618.995117 1128.998535,619.001892 1128.580322,619.000061   C1113.442993,616.664673 1098.723999,614.331116 1084.004883,611.997559  z" />
<path fill="#44B4F8" stroke="none" d=" M1129.359375,619.150024   C1131.919067,612.940979 1134.633057,606.779907 1137.795410,600.858337   C1142.323853,592.379028 1147.180054,584.074768 1151.945679,575.340576   C1163.448853,578.895020 1174.902588,582.804626 1186.686523,586.867981   C1181.425537,597.075989 1175.804077,607.113708 1170.260010,617.193970   C1168.438721,620.505432 1166.817383,623.926880 1165.049805,627.656311   C1153.234619,625.111389 1141.474243,622.208191 1129.359375,619.150024  z" />
<path fill="#337AE6" stroke="none" d=" M1233.952393,657.026794   C1240.951050,644.483032 1247.949707,631.939209 1254.990723,618.999329   C1262.983521,622.609314 1271.196289,626.172791 1278.836548,630.701843   C1304.893677,646.148193 1328.783325,664.483643 1350.674805,685.924438   C1353.912598,689.478027 1356.858154,692.866394 1359.951172,696.548096   C1358.751465,698.025330 1356.974121,698.960754 1356.124390,700.432007   C1348.674072,713.329773 1341.389526,726.323181 1333.984253,739.641479   C1324.265869,729.817749 1314.633179,719.627441 1304.959229,709.476440   C1303.250977,707.683899 1301.370972,706.055115 1298.996460,704.017822   C1286.280151,694.131226 1274.137573,684.577515 1261.693848,674.858765   C1252.245850,668.804749 1243.099121,662.915771 1233.952393,657.026794  z" />
<path fill="#2FC3F4" stroke="none" d=" M1166.954590,629.365967   C1183.065063,635.372803 1199.126221,641.720886 1215.165771,648.123535   C1216.697876,648.735168 1218.093628,649.688354 1219.763672,651.124756   C1219.028442,654.417114 1218.315308,657.180237 1217.098267,659.699951   C1209.638428,675.144897 1202.069580,690.537292 1194.527588,705.942505   C1178.710938,738.249390 1162.913818,770.565735 1147.060303,802.854431   C1135.021484,827.373840 1122.866455,851.836426 1110.895752,876.388855   C1109.777466,878.682617 1109.614502,881.442078 1109.007935,883.985352   C1106.272949,883.320862 1103.537842,882.656433 1100.408203,881.984375   C1095.520630,879.987732 1091.092651,877.832642 1086.520630,876.046082   C1078.312134,872.838562 1069.997070,869.904602 1061.764404,866.757751   C1054.656250,864.040955 1053.784424,861.535461 1057.174805,854.626953   C1073.974243,820.394897 1090.765747,786.158875 1107.539429,751.914124   C1122.774048,720.811035 1138.008301,689.707581 1153.186157,658.576782   C1157.852905,649.005310 1162.333618,639.343018 1166.954590,629.365967  z" />
<path fill="#3FD2F7" stroke="none" d=" M1083.572144,611.998535   C1098.723999,614.331116 1113.442993,616.664673 1128.576172,619.004028   C1128.078369,621.833435 1127.496826,624.819092 1126.203979,627.455933   C1112.505127,655.396240 1098.650391,683.260071 1084.923218,711.186584   C1069.070435,743.437500 1053.291626,775.724854 1037.503784,808.007690   C1032.169312,818.915710 1026.941895,829.876221 1021.596558,840.778870   C1018.071777,847.968140 1015.765076,848.700562 1008.371338,845.063538   C996.313110,839.494141 984.618652,834.006653 972.955688,828.453247   C971.333435,827.680664 969.866150,826.582581 968.444092,825.168701   C969.718750,823.110535 971.129211,821.643860 971.990051,819.905151   C975.529968,812.754822 978.841492,805.491821 982.347595,798.324463   C998.719299,764.856873 1015.094543,731.390991 1031.533325,697.956299   C1045.112305,670.338013 1058.787109,642.766602 1072.395386,615.162659   C1073.050293,613.834229 1073.473633,612.391785 1074.004883,611.002441   C1077.049683,611.334839 1080.094604,611.667175 1083.572144,611.998535  z" />
<path fill="#4EDEFC" stroke="none" d=" M1073.550659,611.001587   C1073.473633,612.391785 1073.050293,613.834229 1072.395386,615.162659   C1058.787109,642.766602 1045.112305,670.338013 1031.533325,697.956299   C1015.094543,731.390991 998.719299,764.856873 982.347595,798.324463   C978.841492,805.491821 975.529968,812.754822 971.990051,819.905151   C971.129211,821.643860 969.718750,823.110535 968.261841,824.879883   C965.955933,824.358154 963.814331,823.910767 961.964172,822.919495   C947.855225,815.360718 933.803101,807.695801 919.383423,800.000854   C917.488098,798.808044 915.942688,797.678345 914.195312,796.302979   C915.479065,792.738037 916.864563,789.369568 918.466309,786.107300   C929.553345,763.527466 940.710144,740.981812 951.797424,718.402161   C968.683655,684.012817 985.585999,649.631165 1002.319519,615.167542   C1004.171875,611.352478 1006.366577,609.838623 1010.689209,609.880249   C1019.149231,609.961914 1027.616089,609.333069 1036.547363,608.997925   C1049.041870,609.665283 1061.069214,610.333069 1073.550659,611.001587  z" />
<path fill="#1DB2EF" stroke="none" d=" M1261.995117,675.023804   C1274.137573,684.577515 1286.280151,694.131226 1298.699219,703.872375   C1295.453857,711.764893 1292.109253,719.556885 1288.379028,727.159668   C1274.442871,755.561584 1260.333252,783.878357 1246.377930,812.270935   C1231.030518,843.496094 1215.760498,874.759338 1200.543091,906.047974   C1199.633545,907.918213 1199.490479,910.161255 1198.981689,912.642334   C1190.228149,910.415588 1181.483765,907.777344 1172.373291,905.104980   C1166.500000,903.230774 1160.993042,901.390686 1155.238037,898.908569   C1155.558472,896.383484 1155.902710,894.394470 1156.732910,892.634827   C1161.201050,883.165955 1165.744629,873.731995 1170.345459,864.326660   C1186.490356,831.322571 1202.636475,798.318909 1218.845581,765.346252   C1232.343384,737.888916 1245.960083,710.489868 1259.427490,683.017639   C1260.646484,680.531006 1261.156128,677.696655 1261.995117,675.023804  z" />
<path fill="#25B9F1" stroke="none" d=" M1261.693848,674.858765   C1261.156128,677.696655 1260.646484,680.531006 1259.427490,683.017639   C1245.960083,710.489868 1232.343384,737.888916 1218.845581,765.346252   C1202.636475,798.318909 1186.490356,831.322571 1170.345459,864.326660   C1165.744629,873.731995 1161.201050,883.165955 1156.732910,892.634827   C1155.902710,894.394470 1155.558472,896.383484 1154.975342,898.665710   C1150.352539,897.771545 1145.683228,896.661926 1141.148804,895.147949   C1130.619385,891.632385 1120.154907,887.921509 1109.336060,884.137573   C1109.614502,881.442078 1109.777466,878.682617 1110.895752,876.388855   C1122.866455,851.836426 1135.021484,827.373840 1147.060303,802.854431   C1162.913818,770.565735 1178.710938,738.249390 1194.527588,705.942505   C1202.069580,690.537292 1209.638428,675.144897 1217.098267,659.699951   C1218.315308,657.180237 1219.028442,654.417114 1219.987305,651.382080   C1224.415527,652.970642 1228.831177,654.943726 1233.599609,656.971802   C1243.099121,662.915771 1252.245850,668.804749 1261.693848,674.858765  z" />
</svg>